mastitorrents.com
 
http://mastitorrents.com/forums/index.php

General
Complete name : Thambadhya Ragasyam - B Grade Hot Tamil Movie.mkv
Format : Matroska
File size : 190 MiB
Duration : 57mn 1s
Overall bit rate : 465 Kbps
Writing application : Lavf52.0.0
Writing library : Lavf52.0.0

Video
ID : 1
Format : MPEG-4 Visual
Format profile : Simple@L1
Format settings, BVOP : No
Format settings, QPel : No
Format settings, GMC : No warppoints
Format settings, Matrix : Default (H.263)
Codec ID : V_MPEG4/ISO/ASP
Codec ID/Info : Advanced Simple Profile
Duration : 57mn 1s
Bit rate : 328 Kbps
Width : 352 pixels
Height : 288 pixels
Display aspect ratio : 4:3
Frame rate mode : Constant
Frame rate : 23.976 fps
Standard : PAL
Color space : YUV
Chroma subsampling : 4:2:0
Bit depth : 8 bits
Scan type : Progressive
Bits/(Pixel*Frame) : 0.135
Stream size : 134 MiB (71%)
Writing library : Lavc52.48.0


Audio
ID : 2
Format : MPEG Audio
Format version : Version 1
Format profile : Layer 2
Codec ID : A_MPEG/L2
Codec ID/Hint : MP2
Duration : 57mn 1s
Bit rate mode : Constant
Bit rate : 128 Kbps
Channel(s) : 2 channels
Sampling rate : 44.1 KHz
Bit depth : 16 bits
Stream size : 52.2 MiB (28%)
